# xmcd
#
# Track frame offsets:
#	150
#	15556
#	30583
#	46426
#	62573
#	79445
#	94298
#	104483
#	117979
#	136294
#	150072
#	165954
#	179883
#	195275
#	208140
#	223326
#	234284
#	253589
#	262698
#	277428
#	288652
#	306170
#	323705
#	342515
#
# Disc length: 4765 seconds
# Revision: 0
# Processed by: cddbd v1.5.2PL0 Copyright (c) Steve Scherf et al.
# Submitted via: dBpowerAMP V12.0
#
DISCID=62129b18
DTITLE=Alligator Jackson - A Case Of Gator
DYEAR=1900
DGENRE=Southern Rock
TTITLE0=Liquid Courage
TTITLE1=When Hell's Breaking Loose
TTITLE2=Bite The Bullet
TTITLE3=Pull No Punches
TTITLE4=Swamp Justice
TTITLE5=Enjoy The Ride
TTITLE6=Beer Truck (metal mix)
TTITLE7=Bluegrass Baby
TTITLE8=Jenny
TTITLE9=Carolina Summer Nights
TTITLE10=Southern Soil
TTITLE11=Snake In The Woodpile
TTITLE12=Alligator Brew
TTITLE13=Tequila To Killa The Blues
TTITLE14=12 Pack
TTITLE15=Betty Sue's Drinking
TTITLE16=Davis's Place
TTITLE17=Big Headed Dog
TTITLE18=Waffle House 4AM
TTITLE19=12 oz Curls
TTITLE20=Open Road
TTITLE21=Den of Sin
TTITLE22=Metal Courage
TTITLE23=Chomp On
EXTD=
EXTT0=
EXTT1=
EXTT2=
EXTT3=
EXTT4=
EXTT5=
EXTT6=
EXTT7=
EXTT8=
EXTT9=
EXTT10=
EXTT11=
EXTT12=
EXTT13=
EXTT14=
EXTT15=
EXTT16=
EXTT17=
EXTT18=
EXTT19=
EXTT20=
EXTT21=
EXTT22=
EXTT23=
PLAYORDER=
